<mxfile host="app.diagrams.net" agent="Mozilla/5.0 (Windows NT 10.0; Win64; x64) AppleWebKit/537.36 (KHTML, like Gecko) Chrome/131.0.0.0 Safari/537.36" version="26.0.9">
  <diagram name="Pagina-1" id="sUSBrXrgyKT2BNmbNJCl">
    <mxGraphModel dx="1050" dy="557" grid="1" gridSize="10" guides="1" tooltips="1" connect="1" arrows="1" fold="1" page="1" pageScale="1" pageWidth="827" pageHeight="1169" math="0" shadow="0">
      <root>
        <mxCell id="0" />
        <mxCell id="1" parent="0" />
        <mxCell id="6Th_bTBhDRST-OIofbd--3" value="" style="edgeStyle=orthogonalEdgeStyle;rounded=0;orthogonalLoop=1;jettySize=auto;html=1;" edge="1" parent="1" source="6Th_bTBhDRST-OIofbd--1" target="6Th_bTBhDRST-OIofbd--2">
          <mxGeometry relative="1" as="geometry" />
        </mxCell>
        <mxCell id="6Th_bTBhDRST-OIofbd--1" value="start" style="ellipse;whiteSpace=wrap;html=1;" vertex="1" parent="1">
          <mxGeometry x="354" width="120" height="80" as="geometry" />
        </mxCell>
        <mxCell id="6Th_bTBhDRST-OIofbd--5" value="" style="edgeStyle=orthogonalEdgeStyle;rounded=0;orthogonalLoop=1;jettySize=auto;html=1;" edge="1" parent="1" source="6Th_bTBhDRST-OIofbd--2" target="6Th_bTBhDRST-OIofbd--4">
          <mxGeometry relative="1" as="geometry" />
        </mxCell>
        <mxCell id="6Th_bTBhDRST-OIofbd--2" value="write&amp;nbsp;&lt;div&gt;&quot;Write an integer number&quot;&lt;/div&gt;" style="shape=parallelogram;perimeter=parallelogramPerimeter;whiteSpace=wrap;html=1;fixedSize=1;" vertex="1" parent="1">
          <mxGeometry x="354" y="170" width="120" height="60" as="geometry" />
        </mxCell>
        <mxCell id="6Th_bTBhDRST-OIofbd--7" value="" style="edgeStyle=orthogonalEdgeStyle;rounded=0;orthogonalLoop=1;jettySize=auto;html=1;" edge="1" parent="1" source="6Th_bTBhDRST-OIofbd--4" target="6Th_bTBhDRST-OIofbd--6">
          <mxGeometry relative="1" as="geometry" />
        </mxCell>
        <mxCell id="6Th_bTBhDRST-OIofbd--4" value="read number" style="shape=parallelogram;perimeter=parallelogramPerimeter;whiteSpace=wrap;html=1;fixedSize=1;" vertex="1" parent="1">
          <mxGeometry x="354" y="310" width="120" height="60" as="geometry" />
        </mxCell>
        <mxCell id="6Th_bTBhDRST-OIofbd--9" value="" style="edgeStyle=orthogonalEdgeStyle;rounded=0;orthogonalLoop=1;jettySize=auto;html=1;" edge="1" parent="1" source="6Th_bTBhDRST-OIofbd--6" target="6Th_bTBhDRST-OIofbd--8">
          <mxGeometry relative="1" as="geometry" />
        </mxCell>
        <mxCell id="6Th_bTBhDRST-OIofbd--17" value="TRUE" style="edgeLabel;html=1;align=center;verticalAlign=middle;resizable=0;points=[];" vertex="1" connectable="0" parent="6Th_bTBhDRST-OIofbd--9">
          <mxGeometry x="-0.0065" relative="1" as="geometry">
            <mxPoint as="offset" />
          </mxGeometry>
        </mxCell>
        <mxCell id="6Th_bTBhDRST-OIofbd--11" value="" style="edgeStyle=orthogonalEdgeStyle;rounded=0;orthogonalLoop=1;jettySize=auto;html=1;" edge="1" parent="1" source="6Th_bTBhDRST-OIofbd--6" target="6Th_bTBhDRST-OIofbd--10">
          <mxGeometry relative="1" as="geometry" />
        </mxCell>
        <mxCell id="6Th_bTBhDRST-OIofbd--18" value="FALSE" style="edgeLabel;html=1;align=center;verticalAlign=middle;resizable=0;points=[];" vertex="1" connectable="0" parent="6Th_bTBhDRST-OIofbd--11">
          <mxGeometry x="-0.0796" relative="1" as="geometry">
            <mxPoint as="offset" />
          </mxGeometry>
        </mxCell>
        <mxCell id="6Th_bTBhDRST-OIofbd--6" value="number % 2 == 0&lt;div&gt;&lt;span style=&quot;background-color: transparent; color: light-dark(rgb(0, 0, 0), rgb(255, 255, 255));&quot;&gt;AND&lt;/span&gt;&lt;/div&gt;&lt;div&gt;&lt;span style=&quot;background-color: transparent; color: light-dark(rgb(0, 0, 0), rgb(255, 255, 255));&quot;&gt;number &amp;gt; 10&lt;/span&gt;&lt;/div&gt;" style="rhombus;whiteSpace=wrap;html=1;" vertex="1" parent="1">
          <mxGeometry x="341" y="440" width="146" height="110" as="geometry" />
        </mxCell>
        <mxCell id="6Th_bTBhDRST-OIofbd--13" style="edgeStyle=orthogonalEdgeStyle;rounded=0;orthogonalLoop=1;jettySize=auto;html=1;exitX=0.5;exitY=1;exitDx=0;exitDy=0;entryX=0;entryY=0.5;entryDx=0;entryDy=0;" edge="1" parent="1" source="6Th_bTBhDRST-OIofbd--8" target="6Th_bTBhDRST-OIofbd--12">
          <mxGeometry relative="1" as="geometry" />
        </mxCell>
        <mxCell id="6Th_bTBhDRST-OIofbd--8" value="write &quot;Valid Number&quot;" style="whiteSpace=wrap;html=1;" vertex="1" parent="1">
          <mxGeometry x="128" y="465" width="120" height="60" as="geometry" />
        </mxCell>
        <mxCell id="6Th_bTBhDRST-OIofbd--14" style="edgeStyle=orthogonalEdgeStyle;rounded=0;orthogonalLoop=1;jettySize=auto;html=1;exitX=0.5;exitY=1;exitDx=0;exitDy=0;entryX=1;entryY=0.5;entryDx=0;entryDy=0;" edge="1" parent="1" source="6Th_bTBhDRST-OIofbd--10" target="6Th_bTBhDRST-OIofbd--12">
          <mxGeometry relative="1" as="geometry" />
        </mxCell>
        <mxCell id="6Th_bTBhDRST-OIofbd--10" value="write &quot;Invalid Number&quot;" style="whiteSpace=wrap;html=1;" vertex="1" parent="1">
          <mxGeometry x="580" y="465" width="120" height="60" as="geometry" />
        </mxCell>
        <mxCell id="6Th_bTBhDRST-OIofbd--16" style="edgeStyle=orthogonalEdgeStyle;rounded=0;orthogonalLoop=1;jettySize=auto;html=1;exitX=0.5;exitY=1;exitDx=0;exitDy=0;entryX=0.5;entryY=0;entryDx=0;entryDy=0;" edge="1" parent="1" source="6Th_bTBhDRST-OIofbd--12" target="6Th_bTBhDRST-OIofbd--15">
          <mxGeometry relative="1" as="geometry" />
        </mxCell>
        <mxCell id="6Th_bTBhDRST-OIofbd--12" value="" style="ellipse;whiteSpace=wrap;html=1;aspect=fixed;" vertex="1" parent="1">
          <mxGeometry x="394" y="660" width="40" height="40" as="geometry" />
        </mxCell>
        <mxCell id="6Th_bTBhDRST-OIofbd--15" value="end" style="ellipse;whiteSpace=wrap;html=1;" vertex="1" parent="1">
          <mxGeometry x="354" y="760" width="120" height="80" as="geometry" />
        </mxCell>
      </root>
    </mxGraphModel>
  </diagram>
</mxfile>
